<svg width="21" height="21" viewBox="0 0 21 21" fill="none" xmlns="http://www.w3.org/2000/svg">
<path d="M9.70898 0.966797L8.82227 4.87109L5.20703 7.9375C4.75919 8.31737 4.5 8.87637 4.5 9.46289V19C4.5 20.0931 5.40694 21 6.5 21H15.1348C15.8884 21 16.5812 20.5719 16.9199 19.9004L20.3359 13.127C20.4463 12.9123 20.5 12.6752 20.5 12.4434V10C20.5 8.90694 19.5931 8 18.5 8H13.9355C14.2175 7.12305 14.5 5.98654 14.5 4.86328C14.5 3.12758 13.4139 1.98986 12.4453 1.50781C11.4767 1.02577 10.541 1 10.541 1L9.70898 0.966797ZM11.248 3.21484C11.3888 3.25722 11.4059 3.22479 11.5547 3.29883C12.0861 3.56328 12.5 3.85698 12.5 4.86328C12.5 6.25178 11.5781 8.61133 11.5781 8.61133L10.9922 10H18.5V12.3242L15.1348 19H6.5V9.46289L10.625 5.96289L11.248 3.21484ZM0.5 8V21H2.5V8H0.5Z" fill="white"/>
</svg>
