<svg width="22" height="21" viewBox="0 0 22 21" fill="none" xmlns="http://www.w3.org/2000/svg">
<path d="M2 0C0.897 0 0 0.897 0 2V16C0 17.103 0.897 18 2 18H10V16H2V2H18V10.2852L20 11.4082V2C20 0.897 19.103 0 18 0H2ZM4.00195 4V6H6V4H4.00195ZM14 4V6H16V4H14ZM4 8V10H6V8H4ZM13.0859 10C12.514 10.019 12 10.492 12 11.1445V19.8555C12 20.7255 12.9132 21.2764 13.6602 20.8574L21.4199 16.502C22.1939 16.067 22.1939 14.932 21.4199 14.498L13.6602 10.1426C13.4734 10.0378 13.2766 9.99367 13.0859 10ZM4 12V14H6V12H4Z" fill="#686868"/>
</svg>
